# xmcd
#
# Track frame offsets: 
#        150
#        11058
#        19559
#        28597
#        40361
#        50653
#        60660
#        71075
#        82457
#        91154
#        103314
#        117971
#        127733
#        136702
#        145853
#        155271
#        165415
#        177241
#        188471
#        198026
#        207324
#        217871
#        229185
#        241984
#        253744
#        263409
#        277328
#        290378
#        298458
#        312548
#
# Disc length: 4390 seconds
#
# Revision: 0
# Processed by: cddbd v1.5.2PL0 Copyright (c) Steve Scherf et al.
# Submitted via: ExactAudioCopy v0.95b4
#
DISCID=b811241e
DTITLE=The Beatles  - Library 4 - McCartney Library  FLAC
DYEAR=1900
DGENRE=
TTITLE0=Blue jan bop (Gene Vincent)
TTITLE1=She said yeah (Larry Williams)
TTITLE2=All shook up (Elvis Presley)
TTITLE3=No other baby (The Vipers)
TTITLE4=Lonesome town (Ricky Nelson)
TTITLE5=Movie Magg (Carl Perkins)
TTITLE6=Brown-eyed handsome man (Chuck Berry)
TTITLE7=Coquette (Fats Domino)
TTITLE8=I got stung (Elvis Presley)
TTITLE9=Honey hush (Big Joe Turner)
TTITLE10=Shake a hand (Little Richard)
TTITLE11=Party (Wanda Jackson)
TTITLE12=I'm in love again (Fats Domino)
TTITLE13=I'm gonna be a wheel someday (Fats Domino)
TTITLE14=Blue moon of Kentucky (Elvis Presley)
TTITLE15=Good rokin' tonight (Elvis Presley)
TTITLE16=Be bop a lula: special version (Who's doing that?)
TTITLE17=Lucille (Little Richard)
TTITLE18=Ain't that a shame (Fats Domino)
TTITLE19=Maybe baby (Buddy Holly)
TTITLE20=Kansas City (Little Richard)
TTITLE21=Singing the blues (Guy Mitchell)
TTITLE22=High heel sneekers (Tomy Tucker)
TTITLE23=Just because (Elvis Presley)
TTITLE24=Crackin' up (Bo Diddley)
TTITLE25=Don't get around much anymore (Duke Ellington
TTITLE26=20 flight rock (Eddie Cochran)
TTITLE27=Midnight Special (Leadbelly)
TTITLE28=Don't let the sun catch you crying (Ray Charles)
TTITLE29=Track - No30
EXTD=
EXTT0=
EXTT1=
EXTT2=
EXTT3=
EXTT4=
EXTT5=
EXTT6=
EXTT7=
EXTT8=
EXTT9=
EXTT10=
EXTT11=
EXTT12=
EXTT13=
EXTT14=
EXTT15=
EXTT16=
EXTT17=
EXTT18=
EXTT19=
EXTT20=
EXTT21=
EXTT22=
EXTT23=
EXTT24=
EXTT25=
EXTT26=
EXTT27=
EXTT28=
EXTT29=
PLAYORDER=
